# xmcd CD database file
#
# Track frame offsets:
#	150
#	17792
#	39577
#	59362
#	82290
#	97525
#	123927
#	137922
#	156720
#	176300
#	195105
#
# Disc length: 2938 seconds
#
# Revision: 0
# Processed by: cddbd v1.5.2PL0 Copyright (c) Steve Scherf et al.
# Submitted via: CDex 1.70beta2
#
DISCID=8a0b780b
DTITLE=Quarterbeat - Quarterbeat
DYEAR=1996
DGENRE=Jazz
TTITLE0=Don't ask me
TTITLE1=Right or Wrong
TTITLE2=Plum di Plub-plub
TTITLE3=Every step you take
TTITLE4=2 verse 1
TTITLE5=Cool experience
TTITLE6=ABC
TTITLE7=Tanke
TTITLE8=Right pocket
TTITLE9=My name is not M.
TTITLE10=All I got to say
EXTD=YEAR: 1996
EXTT0=
EXTT1=
EXTT2=
EXTT3=
EXTT4=
EXTT5=
EXTT6=
EXTT7=
EXTT8=
EXTT9=
EXTT10=
PLAYORDER=
